<?xml version="1.0" standalone="no"?>
<!DOCTYPE svg PUBLIC "-//W3C//DTD SVG 20010904//EN"
 "http://www.w3.org/TR/2001/REC-SVG-20010904/DTD/svg10.dtd">
<svg version="1.0" xmlns="http://www.w3.org/2000/svg"
 width="229.000000pt" height="132.000000pt" viewBox="0 0 229.000000 132.000000"
 preserveAspectRatio="xMidYMid meet">

<g transform="translate(0.000000,132.000000) scale(0.100000,-0.100000)"
fill="#000000" stroke="none">
<path d="M990 989 c-67 -28 -268 -79 -381 -98 -69 -11 -140 -28 -158 -37 -34
-17 -37 -41 -5 -36 68 10 420 100 509 130 43 15 55 16 59 6 7 -18 -18 -78 -57
-137 -29 -44 -44 -55 -152 -107 -128 -61 -287 -173 -366 -256 -78 -83 -147
-193 -134 -214 13 -20 103 26 250 128 46 32 145 121 232 209 117 119 152 150
156 136 3 -10 4 -52 2 -93 -3 -100 2 -119 33 -127 44 -11 86 22 135 106 24 42
47 86 51 99 4 12 12 22 18 22 6 0 8 -24 3 -70 l-7 -70 28 -11 c23 -8 41 -7 82
6 65 20 120 68 178 154 l43 64 99 1 c113 1 117 -6 27 -49 -36 -16 -71 -25
-104 -25 -55 0 -70 -19 -30 -40 40 -22 152 23 226 91 27 25 48 37 58 32 21 -7
15 -32 -30 -133 -41 -92 -54 -150 -33 -150 9 0 20 18 27 43 7 23 23 58 35 77
33 53 59 128 52 155 -3 13 -14 31 -23 41 -15 15 -15 18 -1 28 25 18 31 54 14
81 -49 74 -197 72 -284 -4 -27 -23 -54 -84 -46 -104 3 -8 -1 -17 -9 -20 -8 -3
-28 -30 -45 -59 -36 -64 -88 -113 -150 -139 -60 -26 -75 -20 -68 28 6 46 -12
123 -29 123 -16 0 -33 -22 -90 -115 -49 -81 -88 -124 -114 -125 -11 0 -13 16
-8 86 5 63 2 96 -8 120 -12 29 -12 34 2 45 28 24 73 114 73 147 0 34 -15 73
-28 71 -4 0 -18 -5 -32 -10z m774 -39 c43 -16 48 -40 16 -78 -23 -28 -37 -34
-86 -41 -65 -8 -137 -7 -153 4 -35 21 29 105 94 125 32 10 89 6 129 -10z
m-922 -277 c-54 -68 -246 -249 -312 -295 -72 -49 -180 -111 -186 -106 -1 2 16
28 39 58 116 149 250 265 391 336 45 23 85 42 89 43 5 1 -5 -16 -21 -36z"/>
</g>
</svg>
